<?xml version="1.0" standalone="no"?>
<!DOCTYPE svg PUBLIC "-//W3C//DTD SVG 20010904//EN"
 "http://www.w3.org/TR/2001/REC-SVG-20010904/DTD/svg10.dtd">
<svg version="1.0" xmlns="http://www.w3.org/2000/svg"
 width="848.000000pt" height="847.000000pt" viewBox="0 0 848.000000 847.000000"
 preserveAspectRatio="xMidYMid meet">

<g transform="translate(0.000000,847.000000) scale(0.100000,-0.100000)"
fill="#000000" stroke="none">
<path d="M3409 7990 c-374 -47 -715 -228 -990 -525 -77 -82 -294 -336 -356
-415 -119 -152 -213 -333 -281 -542 -46 -138 -79 -275 -69 -284 3 -3 151 -55
329 -116 178 -60 371 -126 430 -146 l107 -36 58 54 c252 235 241 222 276 323
17 50 61 151 97 222 64 129 66 130 120 157 86 43 172 61 290 61 172 0 296 -31
455 -111 75 -38 107 -63 191 -146 83 -84 108 -117 147 -193 81 -158 111 -325
88 -498 -24 -180 -86 -311 -201 -424 -81 -81 -268 -230 -447 -358 -322 -230
-561 -451 -677 -626 -159 -239 -258 -566 -310 -1029 -21 -179 -23 -165 27
-173 23 -4 182 -31 352 -61 171 -30 351 -61 400 -70 l91 -15 171 82 171 81 7
52 c53 420 100 590 200 726 54 73 220 228 360 335 193 147 405 317 405 325 0
4 -49 40 -110 79 -196 130 -315 280 -388 494 -32 91 -36 116 -40 232 -5 145 6
209 58 344 71 183 194 319 365 401 129 63 195 80 330 87 190 9 342 -33 483
-134 l74 -54 -6 83 c-27 335 -103 578 -267 860 -153 261 -435 542 -689 685
-230 130 -531 229 -800 263 -119 15 -372 20 -451 10z"/>
<path d="M5085 4810 c-11 -16 -23 -30 -27 -30 -5 0 -8 -18 -8 -40 0 -60 20
-74 129 -88 52 -7 95 -11 97 -10 2 2 -2 23 -8 46 -9 36 -22 52 -80 97 -39 30
-73 55 -77 55 -3 0 -15 -14 -26 -30z"/>
<path d="M5860 4759 c0 -5 5 -7 10 -4 6 3 10 8 10 11 0 2 -4 4 -10 4 -5 0 -10
-5 -10 -11z"/>
<path d="M5465 4565 c14 -37 10 -59 -13 -71 l-23 -12 28 -3 c43 -6 83 1 83 15
0 6 -19 30 -41 51 -28 26 -39 33 -34 20z"/>
<path d="M5270 3882 c113 -10 199 -20 192 -22 -19 -8 310 0 338 8 28 7 -153
17 -500 25 l-235 6 205 -17z"/>
<path d="M5325 3260 c33 -4 80 -8 105 -7 41 0 39 1 -15 7 -33 4 -80 8 -105 7
-41 0 -39 -1 15 -7z"/>
<path d="M3140 2844 c-30 -8 -151 -62 -269 -120 -193 -95 -220 -111 -275 -167
-316 -320 -127 -873 320 -936 94 -14 164 0 398 78 236 79 293 110 376 198 165
176 196 442 78 666 -40 75 -154 192 -225 230 -114 61 -285 83 -403 51z"/>
<path d="M5711 2814 c-12 -15 -21 -32 -21 -38 1 -11 24 15 41 47 14 25 3 21
-20 -9z"/>
<path d="M5342 1028 c2 -16 12 -24 38 -29 19 -4 204 -13 410 -19 357 -12 509
-7 502 14 -2 5 1 12 6 15 5 3 -90 7 -212 8 -122 1 -334 9 -472 18 -137 8 -255
15 -262 15 -8 0 -12 -9 -10 -22z"/>
<path d="M4690 931 c-24 -7 -24 -8 -5 -18 58 -32 146 -45 332 -50 188 -5 249
-1 238 16 -3 5 1 12 7 14 7 3 -57 6 -142 6 -94 1 -190 7 -245 17 -119 21 -155
24 -185 15z"/>
</g>
</svg>
